# xmcd
#
# Track frame offsets:
#  150
#  13175
#  26150
#  38962
#  51762
#  65550
#  75737
#  86275
#  100512
#  111975
#  125200
#  137862
#
# Disc length: 1972 seconds
#
# Revision: 0
# Processed by: cddbd v1.5.1PL0 Copyright (c) Steve Scherf et al.
# Submitted via: AltoMP3_Maker 3.0
#
DISCID=a307b20c
DTITLE=James Brown - 12 Dynamic Tracks
DYEAR=1900
DGENRE=
TTITLE0=Just You And Me Darling
TTITLE1=I Love You, Yes I Do
TTITLE2=I Don't Mind
TTITLE3=Come Over Hear
TTITLE4=The Bells
TTITLE5=Love Don't Love Nobody
TTITLE6=Dancin' Little Thing
TTITLE7=Lost Someone
TTITLE8=And I Do Just What I Want
TTITLE9=So Long
TTITLE10=You Don't Have To Go
TTITLE11=Tell Me What Your'e Gonna Do
EXTD=
EXTT0=
EXTT1=
EXTT2=
EXTT3=
EXTT4=
EXTT5=
EXTT6=
EXTT7=
EXTT8=
EXTT9=
EXTT10=
EXTT11=
PLAYORDER=
